# xmcd
#
# Track frame offsets: 
#        150
#        18905
#        37144
#        54526
#        68344
#        81909
#        96966
#        115145
#        130957
#        148653
#
# Disc length: 2198 seconds
#
# Revision: 0
# Processed by: cddbd v1.5.2PL0 Copyright (c) Steve Scherf et al.
# Submitted via: ExactAudioCopy v0.95b4
#
DISCID=8608940a
DTITLE=เฉลิมพล - รวมพลคนมาลาคำ
DYEAR=2007
DGENRE=Country
TTITLE0=มาหาน้องแน
TTITLE1=อยากลืมแฟนเก่า
TTITLE2=เถื่อหน้าอย่าหวัง
TTITLE3=รู้นะว่คิดอะไร
TTITLE4=อินิสูน
TTITLE5=บัวลีบัวลัย
TTITLE6=อ้ายบ่อส่วง
TTITLE7=เฒ่าตายคาไมค์
TTITLE8=ฟุตบาทแชบนัว
TTITLE9=หมอลำปลอม
EXTD=
EXTT0=
EXTT1=
EXTT2=
EXTT3=
EXTT4=
EXTT5=
EXTT6=
EXTT7=
EXTT8=
EXTT9=
PLAYORDER=
